<svg xmlns="http://www.w3.org/2000/svg" viewBox="0 0 16 16" width="18" height="18">
  <path d="M10.5,0,12,.2a3.8,3.8,0,0,1,1.3.6l1.1.8.9,1.1A6.872,6.872,0,0,1,15.8,4,7.664,7.664,0,0,1,16,5.5,7.664,7.664,0,0,1,15.8,7a6.872,6.872,0,0,1-.5,1.3l-.9,1.1-1.1.9-1.3.5-1.5.2a5.811,5.811,0,0,1-1.9-.3A5.4,5.4,0,0,1,7,9.7L.9,15.9H.1a.8.8,0,0,1,0-.8L6.3,9a5.4,5.4,0,0,1-1-1.6A5.811,5.811,0,0,1,5,5.5,7.664,7.664,0,0,1,5.2,4a3.8,3.8,0,0,1,.6-1.3,4.4,4.4,0,0,1,.8-1.1L7.7.8A3.8,3.8,0,0,1,9,.2Zm0,10a3.909,3.909,0,0,0,1.8-.4,4.213,4.213,0,0,0,1.4-.9,4.213,4.213,0,0,0,.9-1.4A3.909,3.909,0,0,0,15,5.5a3.293,3.293,0,0,0-.4-1.7,3.792,3.792,0,0,0-.9-1.5,4.213,4.213,0,0,0-1.4-.9A3.909,3.909,0,0,0,10.5,1a3.293,3.293,0,0,0-1.7.4,3.792,3.792,0,0,0-1.5.9,3.792,3.792,0,0,0-.9,1.5A3.293,3.293,0,0,0,6,5.5a3.909,3.909,0,0,0,.4,1.8,4.213,4.213,0,0,0,.9,1.4,3.792,3.792,0,0,0,1.5.9A3.293,3.293,0,0,0,10.5,10Z" />
</svg>